<mxfile host="Electron" modified="2021-03-29T13:52:24.161Z" agent="5.0 (Windows NT 10.0; Win64; x64) AppleWebKit/537.36 (KHTML, like Gecko) draw.io/14.1.8 Chrome/87.0.4280.88 Electron/11.1.1 Safari/537.36" etag="SVWrMNY8t5C-m9burqsz" compressed="false" version="14.1.8" type="device">
  <diagram id="p_5dqF6M_ELMbfmQXxSX" name="Seite-1">
    <mxGraphModel dx="769" dy="484" grid="1" gridSize="10" guides="1" tooltips="1" connect="1" arrows="1" fold="1" page="1" pageScale="1" pageWidth="827" pageHeight="1169" math="0" shadow="0">
      <root>
        <mxCell id="0" />
        <mxCell id="1" parent="0" />
        <mxCell id="tCeKCVtLlc2q678bwAeD-7" value="A&lt;sub&gt;1&lt;/sub&gt;" style="rounded=0;whiteSpace=wrap;html=1;fillColor=#dae8fc;strokeColor=#6c8ebf;fontStyle=1" parent="1" vertex="1">
          <mxGeometry x="520" y="80" width="80" height="40" as="geometry" />
        </mxCell>
        <mxCell id="tCeKCVtLlc2q678bwAeD-8" value="9.500" style="rounded=0;whiteSpace=wrap;html=1;fillColor=#f5f5f5;strokeColor=#666666;fontColor=#333333;" parent="1" vertex="1">
          <mxGeometry x="520" y="120" width="80" height="40" as="geometry" />
        </mxCell>
        <mxCell id="tCeKCVtLlc2q678bwAeD-9" value="120.000" style="rounded=0;whiteSpace=wrap;html=1;fillColor=#f5f5f5;strokeColor=#666666;fontColor=#333333;" parent="1" vertex="1">
          <mxGeometry x="520" y="160" width="80" height="40" as="geometry" />
        </mxCell>
        <mxCell id="tCeKCVtLlc2q678bwAeD-10" value="0,079" style="rounded=0;whiteSpace=wrap;html=1;fillColor=#f5f5f5;strokeColor=#666666;fontColor=#333333;" parent="1" vertex="1">
          <mxGeometry x="520" y="200" width="80" height="40" as="geometry" />
        </mxCell>
        <mxCell id="tCeKCVtLlc2q678bwAeD-11" value="79" style="rounded=0;whiteSpace=wrap;html=1;fillColor=#f5f5f5;strokeColor=#666666;fontColor=#333333;" parent="1" vertex="1">
          <mxGeometry x="520" y="260" width="80" height="40" as="geometry" />
        </mxCell>
        <mxCell id="tCeKCVtLlc2q678bwAeD-12" value="3" style="rounded=0;whiteSpace=wrap;html=1;fillColor=#f5f5f5;strokeColor=#666666;fontColor=#333333;fontStyle=1" parent="1" vertex="1">
          <mxGeometry x="520" y="310" width="80" height="40" as="geometry" />
        </mxCell>
        <mxCell id="_FoP0lEEPYN2RG6hxORW-2" value="A&lt;sub&gt;2&lt;/sub&gt;" style="rounded=0;whiteSpace=wrap;html=1;fillColor=#dae8fc;strokeColor=#6c8ebf;fontStyle=1" parent="1" vertex="1">
          <mxGeometry x="600" y="80" width="80" height="40" as="geometry" />
        </mxCell>
        <mxCell id="_FoP0lEEPYN2RG6hxORW-3" value="9.200" style="rounded=0;whiteSpace=wrap;html=1;fillColor=#f5f5f5;strokeColor=#666666;fontColor=#333333;" parent="1" vertex="1">
          <mxGeometry x="600" y="120" width="80" height="40" as="geometry" />
        </mxCell>
        <mxCell id="_FoP0lEEPYN2RG6hxORW-4" value="105.000" style="rounded=0;whiteSpace=wrap;html=1;fillColor=#f5f5f5;strokeColor=#666666;fontColor=#333333;" parent="1" vertex="1">
          <mxGeometry x="600" y="160" width="80" height="40" as="geometry" />
        </mxCell>
        <mxCell id="_FoP0lEEPYN2RG6hxORW-5" value="0,088" style="rounded=0;whiteSpace=wrap;html=1;fillColor=#f5f5f5;strokeColor=#666666;fontColor=#333333;" parent="1" vertex="1">
          <mxGeometry x="600" y="200" width="80" height="40" as="geometry" />
        </mxCell>
        <mxCell id="_FoP0lEEPYN2RG6hxORW-6" value="88" style="rounded=0;whiteSpace=wrap;html=1;fillColor=#f5f5f5;strokeColor=#666666;fontColor=#333333;" parent="1" vertex="1">
          <mxGeometry x="600" y="260" width="80" height="40" as="geometry" />
        </mxCell>
        <mxCell id="_FoP0lEEPYN2RG6hxORW-7" value="2" style="rounded=0;whiteSpace=wrap;html=1;fillColor=#f5f5f5;strokeColor=#666666;fontColor=#333333;fontStyle=1" parent="1" vertex="1">
          <mxGeometry x="600" y="310" width="80" height="40" as="geometry" />
        </mxCell>
        <mxCell id="_FoP0lEEPYN2RG6hxORW-8" value="A&lt;sub&gt;3&lt;/sub&gt;" style="rounded=0;whiteSpace=wrap;html=1;fillColor=#dae8fc;strokeColor=#6c8ebf;fontStyle=1" parent="1" vertex="1">
          <mxGeometry x="680" y="80" width="80" height="40" as="geometry" />
        </mxCell>
        <mxCell id="_FoP0lEEPYN2RG6hxORW-9" value="8.900" style="rounded=0;whiteSpace=wrap;html=1;fillColor=#f5f5f5;strokeColor=#666666;fontColor=#333333;" parent="1" vertex="1">
          <mxGeometry x="680" y="120" width="80" height="40" as="geometry" />
        </mxCell>
        <mxCell id="_FoP0lEEPYN2RG6hxORW-10" value="100.000" style="rounded=0;whiteSpace=wrap;html=1;fillColor=#f5f5f5;strokeColor=#666666;fontColor=#333333;" parent="1" vertex="1">
          <mxGeometry x="680" y="160" width="80" height="40" as="geometry" />
        </mxCell>
        <mxCell id="_FoP0lEEPYN2RG6hxORW-11" value="0,089" style="rounded=0;whiteSpace=wrap;html=1;fillColor=#f5f5f5;strokeColor=#666666;fontColor=#333333;" parent="1" vertex="1">
          <mxGeometry x="680" y="200" width="80" height="40" as="geometry" />
        </mxCell>
        <mxCell id="_FoP0lEEPYN2RG6hxORW-12" value="89" style="rounded=0;whiteSpace=wrap;html=1;fillColor=#f5f5f5;strokeColor=#666666;fontColor=#333333;" parent="1" vertex="1">
          <mxGeometry x="680" y="260" width="80" height="40" as="geometry" />
        </mxCell>
        <mxCell id="_FoP0lEEPYN2RG6hxORW-13" value="1" style="rounded=0;whiteSpace=wrap;html=1;fillColor=#f5f5f5;strokeColor=#666666;fontColor=#333333;fontStyle=1" parent="1" vertex="1">
          <mxGeometry x="680" y="310" width="80" height="40" as="geometry" />
        </mxCell>
        <mxCell id="tCeKCVtLlc2q678bwAeD-1" value="Leistungspunkte" style="rounded=0;whiteSpace=wrap;html=1;fillColor=#ffe6cc;strokeColor=#d79b00;fontStyle=1" parent="1" vertex="1">
          <mxGeometry x="400" y="120" width="120" height="40" as="geometry" />
        </mxCell>
        <mxCell id="tCeKCVtLlc2q678bwAeD-2" value="Preis in â‚¬" style="rounded=0;whiteSpace=wrap;html=1;fillColor=#ffe6cc;strokeColor=#d79b00;fontStyle=1" parent="1" vertex="1">
          <mxGeometry x="400" y="160" width="120" height="40" as="geometry" />
        </mxCell>
        <mxCell id="tCeKCVtLlc2q678bwAeD-3" value="Kennzahl z&lt;sub&gt;0&lt;/sub&gt;" style="rounded=0;whiteSpace=wrap;html=1;fillColor=#ffe6cc;strokeColor=#d79b00;fontStyle=1" parent="1" vertex="1">
          <mxGeometry x="400" y="200" width="120" height="40" as="geometry" />
        </mxCell>
        <mxCell id="tCeKCVtLlc2q678bwAeD-5" value="Kennzahl z&lt;sub&gt;1&lt;/sub&gt;" style="rounded=0;whiteSpace=wrap;html=1;fillColor=#ffe6cc;strokeColor=#d79b00;fontStyle=1" parent="1" vertex="1">
          <mxGeometry x="400" y="260" width="120" height="40" as="geometry" />
        </mxCell>
        <mxCell id="tCeKCVtLlc2q678bwAeD-6" value="Rang" style="rounded=0;whiteSpace=wrap;html=1;fillColor=#ffe6cc;strokeColor=#d79b00;fontStyle=1" parent="1" vertex="1">
          <mxGeometry x="400" y="310" width="120" height="40" as="geometry" />
        </mxCell>
        <mxCell id="_FoP0lEEPYN2RG6hxORW-1" value="&lt;font style=&quot;font-size: 10px&quot;&gt;Skalierung&lt;/font&gt;" style="rounded=0;whiteSpace=wrap;html=1;fontStyle=2;fillColor=#fff2cc;strokeColor=#d6b656;" parent="1" vertex="1">
          <mxGeometry x="520" y="240" width="240" height="20" as="geometry" />
        </mxCell>
      </root>
    </mxGraphModel>
  </diagram>
</mxfile>
